<?xml version="1.0" standalone="no"?>
<!DOCTYPE svg PUBLIC "-//W3C//DTD SVG 20010904//EN"
 "http://www.w3.org/TR/2001/REC-SVG-20010904/DTD/svg10.dtd">
<svg version="1.0" xmlns="http://www.w3.org/2000/svg"
 width="200" height="150" viewBox="30 0 300 150"
 preserveAspectRatio="xMidYMid meet">

<g transform="translate(0.000000,720.000000) scale(0.100000,-0.100000)"
fill="#000000" stroke="none">
<path d="M548 6683 c-3 -159 -5 -188 -18 -188 -12 0 -16 15 -18 68 l-3 67 -44
0 -45 0 0 -79 c0 -68 3 -84 23 -106 27 -32 92 -44 137 -25 54 22 60 48 60 260
l0 190 -45 0 -45 0 -2 -187z"/>
<path d="M720 6640 l0 -230 45 0 45 0 1 138 1 137 19 -105 c10 -58 21 -120 24
-138 6 -32 8 -33 48 -30 l42 3 21 125 21 125 4 -125 4 -125 43 -3 42 -3 0 230
0 231 -69 0 c-81 0 -75 10 -92 -138 -7 -56 -15 -100 -18 -96 -3 3 -13 56 -21
117 l-15 112 -72 3 -73 3 0 -231z"/>
<path d="M410 6300 l0 -30 370 0 370 0 0 30 0 30 -370 0 -370 0 0 -30z"/>
</g>
</svg>
